<svg id="logosandtypes_com" xmlns="http://www.w3.org/2000/svg" viewBox="0 0 150 148"><path d="M0 .2h110v130H0V.2z" fill="none"/><path d="M137.8 105.2l-34.7 7.6c22.3-12.1 29.6-24.8 29.6-24.8l-30 11.2c18.6-16.7 24.4-32.9 24.4-32.9l-24.7 14.3c12.4-20.9 15.6-41 15.6-41L98.4 57c3.4-22.8-1.8-42.4-1.8-42.4L81.4 36.2c-4-19.9-13.1-32.1-13.1-32.1L47 44.1s8.3 10.6 11.5 24.7c1.6 7.1 1.9 15.1-.7 23-.2.5-.3.9-.5 1.4-2.4 7.2-6.1 13.9-10.9 19.8-4 4.8-8.8 9-14.1 12.2-4.1 2.5-8.6 4.5-13.2 5.8-2.1.6-4.2 1.1-6.3 1.4h1.6c1.1 0 2.7 0 4.8-.1h1.5l-1.4.1c-2.5.1-4.4.1-5.5.1h-.7c1.1.1 4.5.2 9.5.2 1.6 0 3.5-.1 5.5-.2h51.7c33.8 0 56.8-10.5 56.8-10.5l-38.8 3.3c30.8-6.6 40-20.1 40-20.1z" fill="#05c49f"/><path d="M68.2 4.1L47 44.1s8.3 10.6 11.5 24.7l22.9-32.7c-4-19.7-13.2-32-13.2-32z" fill="#73d5c0"/><path d="M81.6 71.9L98.4 57c3.4-22.8-1.8-42.4-1.8-42.4L81.4 36.2c2.3 11.8 2.4 23.9.2 35.7z" fill="#01c6bf"/><path d="M57.7 91.9c-.2.5-.3.9-.5 1.4l9.8-8.6 14.5-12.8c2.2-11.8 2.2-23.9-.2-35.7L58.5 68.9c1.5 7.1 1.8 15-.8 23z" fill="#00b89c"/><path d="M86 90.2l16.4-9.5c12.4-21 15.6-41.1 15.6-41.1L98.4 57C96.7 68 93.1 79.6 86 90.2z" fill="#01bacf"/><path d="M73.3 97.2l-.3.5 2.4-1.4L86 90.2C93.1 79.7 96.7 68 98.4 57.1L81.5 71.9c-1.6 8.8-4.4 17.3-8.2 25.3z" fill="#01b1a9"/><path d="M73 97.7l.3-.6c3.8-8 6.6-16.5 8.3-25.3L67.1 84.7l-9.8 8.6c-2.4 7.2-6.1 13.9-10.9 19.8L73 97.7z" fill="#00ae8d"/><path d="M84.3 103.7c-1.5 1.5-3.1 2.8-4.6 4.1l1-.4 22.1-8.2c18.6-16.7 24.4-32.9 24.4-32.9l-24.7 14.3c-5 8.6-11.1 16.3-18.2 23.1z" fill="#00b2d6"/><path d="M65.6 113l14-5.2c1.6-1.3 3.1-2.7 4.6-4.1 7.1-6.8 13.2-14.5 18.2-23L86 90.2c-5.7 8.5-12.5 16.2-20.4 22.8z" fill="#01a7ba"/><path d="M58.7 115.5l6.9-2.5c7.8-6.6 14.7-14.3 20.4-22.8l-10.6 6.1-2.4 1.4c-3.4 7-8.3 13-14.3 17.8z" fill="#01a299"/><path d="M32.2 125.3l26.5-9.7c6-4.8 10.9-10.9 14.3-17.8l-26.6 15.3c-4 4.8-8.8 8.9-14.2 12.2z" fill="#00a082"/><path d="M71.6 119.8l11.9-2.6 19.7-4.3c22.3-12.1 29.6-24.8 29.6-24.8l-30 11.2c-5.3 4.7-11 9-17 12.7-4.6 2.8-9.3 5.4-14.2 7.8z" fill="#00a5dd"/><path d="M79.6 107.8c-7.3 6.2-15.3 11.3-24 15.4l16-3.4c4.9-2.3 9.6-4.9 14.1-7.8 6-3.7 11.7-8 16.9-12.7l-22.1 8.2-.9.3z" fill="#0095c6"/><path d="M55.6 123.2c8.6-4 16.7-9.2 24-15.4l-14 5.2c-5.8 4.9-12.3 9-19.2 12.2l9.2-2z" fill="#0092ab"/><path d="M58.7 115.5l-26.5 9.7c-4.1 2.5-8.6 4.5-13.2 5.8l18.8-4.1 8.6-1.8c6.9-3.2 13.3-7.3 19.2-12.2l-6.9 2.6z" fill="#008f7b"/><path d="M58.8 128.6l22.3-1.9 16.6-1.4c30.9-6.5 40.1-20 40.1-20l-34.7 7.6c-5.4 2.9-10.9 5.4-16.6 7.6-9 3.4-18.3 6.1-27.7 8.1z" fill="#0095d1"/><path d="M71.6 119.8c-9.3 4.5-19 7.9-29.1 10.2l16.3-1.4c9.4-2 18.7-4.7 27.7-8.1 5.7-2.2 11.2-4.7 16.6-7.6l-19.7 4.3-11.8 2.6z" fill="#0080c4"/><path d="M42.5 129.9c10-2.3 19.8-5.7 29.1-10.2l-16 3.4c-7.4 3.4-15.1 6-23.1 7.6l10-.8z" fill="#0079ae"/><path d="M46.4 125.2l-8.6 1.8-18.8 4.1c-2.1.6-4.2 1.1-6.3 1.4h.1l2.8-.2 12.9-1.1 4-.3c8-1.6 15.7-4.2 23.1-7.6l-9.2 1.9z" fill="#01776b"/><path d="M97.7 125.3c-2.6.5-5.3 1-8.2 1.5-19.4 2.9-37.9 4.3-51.8 5.1-3 .2-5.9.3-8.4.4-3.3.1-6.2.2-8.6.3l-1.4.1c-2.5.1-4.4.1-5.5.1h-.7c1.1.1 4.5.2 9.5.2 1.6 0 3.5-.1 5.5-.2h51.7c33.8 0 56.8-10.5 56.8-10.5l-38.9 3z" fill="#017dc5"/><path d="M81.1 126.7l-22.3 1.9-16.3 1.4-10 .9-4 .3-12.9 1.1-2.8.2h1.5c1.1 0 2.7 0 4.8-.1h1.5c2.4-.1 5.3-.1 8.6-.3 2.6-.1 5.4-.2 8.4-.4 14-.7 32.5-2.2 51.8-5.1 2.9-.4 5.6-.9 8.2-1.5l-16.5 1.6z" fill="#0464b1"/></svg>